<?xml version="1.0" encoding="UTF-8"?><svg id="Layer_2" xmlns="http://www.w3.org/2000/svg" viewBox="0 0 1624.84 544.11"><defs><style>.cls-1{font-family:GloriaHallelujah, 'Gloria Hallelujah';font-size:255.78px;stroke-miterlimit:10;stroke-width:5.01px;}.cls-1,.cls-2{stroke:#1d1d1b;}.cls-2{fill:none;stroke-linecap:round;stroke-linejoin:round;stroke-width:20.88px;}.cls-3{fill:#1d1d1b;}</style></defs><g id="Layer_1-2"><g><path class="cls-2" d="m90.9,217.88s245.01,89.44,281.38-4.78c37.77-97.84-205.83-119.01-289.81-84.81C-1.51,162.49-16.08,211,60.15,261.24c76.23,50.24,221.06,85.33,283.05,21.82,61.99-63.51-81.56-123.09-166.76-128.91-85.19-5.82-179.4,53.58-160.09,123.49,19.31,69.91,143.24,104.95,185.2,102.72,45.42-2.42,146.42-1.77,138.12-61.19-8.29-59.41-199.1-61.74-259.47-16.33-36.83,27.71-15.44,104.34,50.48,116.16,59.36,10.65,147.4-1.57,156.38-29.42,12.73-39.49-77.55-74.97-146.92-44.5s-114.43,168.65-38.65,150.54c305.31-72.95,1200.04-140.68,1464.36-147.92"/><polygon class="cls-3" points="1444.26 418.66 1436.6 399.22 1563.83 349.03 1434.11 305.71 1440.72 285.91 1624.84 347.4 1444.26 418.66"/></g><text class="cls-1" transform="translate(452.26 364.42) rotate(-8.91)"><tspan x="0" y="0">U</tspan></text><text class="cls-1" transform="translate(604.5 340.61) rotate(-7.69)"><tspan x="0" y="0">n</tspan></text><text class="cls-1" transform="translate(746.92 321.46) rotate(-6.59)"><tspan x="0" y="0">s</tspan></text><text class="cls-1" transform="translate(868.4 307.42) rotate(-5.55)"><tspan x="0" y="0">c</tspan></text><text class="cls-1" transform="translate(984.75 296.04) rotate(-4.39)"><tspan x="0" y="0">r</tspan></text><text class="cls-1" transform="translate(1110.92 286.3) rotate(-3.06)"><tspan x="0" y="0">o</tspan></text><text class="cls-1" transform="translate(1238.24 279.8) rotate(-1.98)"><tspan x="0" y="0">l</tspan></text><text class="cls-1" transform="translate(1296.02 277.79) rotate(-1.25)"><tspan x="0" y="0">l</tspan></text></g></svg>