<?xml version="1.0" encoding="UTF-8"?><svg id="Layer_2" xmlns="http://www.w3.org/2000/svg" viewBox="0 0 1624.84 546.17"><defs><style>.cls-1{fill:none;stroke:#ffc857;stroke-linecap:round;stroke-linejoin:round;stroke-width:20.88px;}.cls-2{fill:#ef626c;font-family:GloriaHallelujah, 'Gloria Hallelujah';font-size:255.78px;stroke:#ef626c;stroke-miterlimit:10;stroke-width:7px;}.cls-3{fill:#ffc857;}</style></defs><g id="Layer_1-2"><g><path class="cls-1" d="m90.9,189.86s245.01,89.44,281.38-4.78c37.77-97.84-205.83-119.01-289.81-84.81C-1.51,134.47-16.08,182.98,60.15,233.23c76.23,50.24,221.06,85.33,283.05,21.82,61.99-63.51-81.56-123.09-166.76-128.91C91.25,120.32-2.96,179.72,16.35,249.63c19.31,69.91,143.24,104.95,185.2,102.72,45.42-2.42,146.42-1.77,138.12-61.19-8.29-59.41-199.1-61.74-259.47-16.33-36.83,27.71-15.44,104.34,50.48,116.16,59.36,10.65,147.4-1.57,156.38-29.42,12.73-39.49-77.55-74.97-146.92-44.5s-114.43,168.65-38.65,150.54c305.31-72.95,1200.04-140.68,1464.36-147.92"/><polygon class="cls-3" points="1444.26 390.64 1436.6 371.21 1563.83 321.02 1434.11 277.69 1440.72 257.89 1624.84 319.39 1444.26 390.64"/></g><text class="cls-2" transform="translate(452.26 365.45) rotate(-8.91)"><tspan x="0" y="0">U</tspan></text><text class="cls-2" transform="translate(604.5 341.64) rotate(-7.69)"><tspan x="0" y="0">n</tspan></text><text class="cls-2" transform="translate(746.92 322.49) rotate(-6.59)"><tspan x="0" y="0">s</tspan></text><text class="cls-2" transform="translate(868.4 308.45) rotate(-5.55)"><tspan x="0" y="0">c</tspan></text><text class="cls-2" transform="translate(984.75 297.07) rotate(-4.39)"><tspan x="0" y="0">r</tspan></text><text class="cls-2" transform="translate(1110.92 287.33) rotate(-3.06)"><tspan x="0" y="0">o</tspan></text><text class="cls-2" transform="translate(1238.24 280.83) rotate(-1.98)"><tspan x="0" y="0">l</tspan></text><text class="cls-2" transform="translate(1296.02 278.82) rotate(-1.25)"><tspan x="0" y="0">l</tspan></text></g></svg>